<svg width="60" height="60" viewBox="0 0 60 60" fill="none" xmlns="http://www.w3.org/2000/svg">
<path opacity="0.1" d="M33.3327 3.74214C33.3327 1.67541 31.8403 9.03396e-08 29.9993 0C28.1584 -9.03396e-08 26.666 1.67541 26.666 3.74214C26.666 11.7255 28.9278 20.4278 29.9994 28.3333C31.0709 20.4278 33.3327 11.7255 33.3327 3.74214Z" fill="#333037"/>
<path opacity="0.1" d="M46.2177 9.1126C47.2089 7.39565 46.6207 5.20021 44.9037 4.20893C43.1868 3.21765 40.9913 3.80592 40.0001 5.52286C36.171 12.155 34.1064 20.6024 31.314 27.747C36.1052 21.7565 42.3886 15.7448 46.2177 9.1126Z" fill="#333037"/>
<path opacity="0.1" d="M54.2739 19.658C55.9908 18.6667 56.5791 16.4713 55.5878 14.7543C54.5966 13.0374 52.4011 12.4491 50.6842 13.4404C44.052 17.2695 38.0403 23.5528 32.0498 28.344C39.1943 25.5517 47.6417 23.4871 54.2739 19.658Z" fill="#333037"/>
<path opacity="0.1" d="M5.67141 39.8508C3.95447 40.8421 3.3662 43.0375 4.35748 44.7545C5.34876 46.4714 7.5442 47.0597 9.26114 46.0684C15.8933 42.2393 21.905 35.9559 27.8955 31.1648C20.751 33.9571 12.3036 36.0217 5.67141 39.8508Z" fill="#333037"/>
<path opacity="0.1" d="M14.1007 9.11357C13.1094 7.39663 13.6977 5.20118 15.4146 4.20991C17.1316 3.21863 19.327 3.8069 20.3183 5.52384C24.1474 12.156 26.212 20.6034 29.0043 27.748C24.2132 21.7574 17.9298 15.7458 14.1007 9.11357Z" fill="#333037"/>
<path opacity="0.1" d="M46.2177 51.0485C47.2089 52.7655 46.6207 54.9609 44.9037 55.9522C43.1868 56.9435 40.9913 56.3552 40.0001 54.6383C36.171 48.0061 34.1064 39.5587 31.314 32.4141C36.1052 38.4047 42.3886 44.4164 46.2177 51.0485Z" fill="#333037"/>
<path opacity="0.1" d="M14.6144 51.0495C13.6231 52.7665 14.2114 54.9619 15.9283 55.9532C17.6453 56.9445 19.8407 56.3562 20.832 54.6392C24.6611 48.0071 26.7256 39.5597 29.518 32.4151C24.7268 38.4056 18.4435 44.4173 14.6144 51.0495Z" fill="#333037"/>
<path opacity="0.1" d="M33.3327 56.478C33.3327 58.4231 31.8403 60 29.9993 60C28.1584 60 26.666 58.4231 26.666 56.478C26.666 48.9643 28.9278 40.7738 29.9994 33.3333C31.0709 40.7738 33.3327 48.9643 33.3327 56.478Z" fill="#333037"/>
<path d="M56.478 26.6663C58.4231 26.6663 60 28.1587 60 29.9997C60 31.8406 58.4231 33.333 56.478 33.333C48.9643 33.333 40.7738 31.0713 33.3333 29.9997C40.7738 28.9281 48.9643 26.6663 56.478 26.6663Z" fill="#333037"/>
<path opacity="0.1" d="M3.52201 26.6663C1.57686 26.6663 3.11201e-07 28.1587 1.45705e-07 29.9997C-1.97914e-08 31.8406 1.57686 33.333 3.52201 33.333C11.0357 33.333 19.2262 31.0713 26.6667 29.9997C19.2262 28.9281 11.0357 26.6663 3.52201 26.6663Z" fill="#333037"/>
<path opacity="0.1" d="M54.6665 39.6897C56.3834 40.681 56.9717 42.8764 55.9804 44.5933C54.9891 46.3103 52.7937 46.8986 51.0767 45.9073C44.4446 42.0782 38.4329 35.7948 32.4424 31.0036C39.5869 33.796 48.0343 35.8606 54.6665 39.6897Z" fill="#333037"/>
<path opacity="0.1" d="M8.92315 13.2794C7.2062 12.2881 5.01076 12.8764 4.01948 14.5933C3.0282 16.3103 3.61647 18.5057 5.33341 19.497C11.9656 23.3261 20.413 25.3907 27.5575 28.1831C21.567 23.3919 15.5553 17.1085 8.92315 13.2794Z" fill="#333037"/>
</svg>
