<svg width="209" height="207" viewBox="0 0 209 207" fill="none" xmlns="http://www.w3.org/2000/svg">
<path d="M117.778 12.4914C117.778 5.5926 112.185 3.01557e-07 105.286 0C98.3875 -3.01557e-07 92.7949 5.5926 92.7949 12.4914C92.7949 39.1401 101.271 68.1889 105.286 94.5779C109.302 68.1889 117.778 39.1401 117.778 12.4914Z" fill="#FDFDF9"/>
<path d="M160.825 30.4475C164.274 24.4729 162.227 16.8333 156.252 13.3839C150.278 9.93448 142.638 11.9815 139.189 17.9561C125.865 41.0345 118.68 70.4294 108.964 95.2907C125.636 74.4451 147.5 53.5259 160.825 30.4475Z" fill="#FDFDF9"/>
<path d="M188.866 67.1407C194.84 63.6913 196.888 56.0517 193.438 50.0772C189.989 44.1026 182.349 42.0556 176.374 45.505C153.296 58.8293 132.377 80.6939 111.531 97.3661C136.393 87.6493 165.788 80.4651 188.866 67.1407Z" fill="#FDFDF9"/>
<path d="M19.7386 137.407C13.764 140.856 11.717 148.496 15.1664 154.47C18.6158 160.445 26.2554 162.492 32.23 159.042C55.3084 145.718 76.2276 123.853 97.0732 107.181C72.2119 116.898 42.817 124.082 19.7386 137.407Z" fill="#FDFDF9"/>
<path d="M49.0719 30.4475C45.6224 24.4729 47.6695 16.8333 53.644 13.3839C59.6186 9.93448 67.2582 11.9815 70.7076 17.9561C84.0319 41.0345 91.2162 70.4294 100.933 95.2907C84.2608 74.4451 62.3962 53.5259 49.0719 30.4475Z" fill="#FDFDF9"/>
<path d="M160.825 176.375C164.274 182.349 162.227 189.989 156.252 193.438C150.278 196.888 142.638 194.841 139.189 188.866C125.865 165.788 118.68 136.393 108.964 111.532C125.636 132.377 147.5 153.296 160.825 176.375Z" fill="#FDFDF9"/>
<path d="M50.859 176.375C47.4096 182.349 49.4566 189.989 55.4311 193.438C61.4057 196.888 69.0453 194.841 72.4947 188.866C85.819 165.788 93.0033 136.393 102.72 111.532C86.0479 132.377 64.1833 153.296 50.859 176.375Z" fill="#FDFDF9"/>
<path d="M117.778 194.509C117.778 201.407 112.185 207 105.286 207C98.3875 207 92.7949 201.407 92.7949 194.509C92.7949 167.86 101.271 138.811 105.286 112.422C109.302 138.811 117.778 167.86 117.778 194.509Z" fill="#FDFDF9"/>
<path d="M196.294 89.2247C203.193 89.2247 208.785 94.8173 208.785 101.716C208.785 108.615 203.193 114.208 196.294 114.208C169.645 114.208 140.596 105.732 114.207 101.716C140.596 97.7004 169.645 89.2247 196.294 89.2247Z" fill="#FDFDF9"/>
<path d="M12.4914 89.2247C5.5926 89.2247 1.14913e-06 94.8173 5.46017e-07 101.716C-5.70974e-08 108.615 5.5926 114.208 12.4914 114.208C39.1401 114.208 68.1889 105.732 94.5779 101.716C68.1889 97.7004 39.1401 89.2247 12.4914 89.2247Z" fill="#FDFDF9"/>
<path d="M190.225 136.849C196.2 140.298 198.247 147.938 194.797 153.913C191.348 159.887 183.708 161.934 177.734 158.485C154.655 145.16 133.736 123.296 112.891 106.624C137.752 116.34 167.147 123.525 190.225 136.849Z" fill="#FDFDF9"/>
<path d="M31.0486 44.9478C25.074 41.4984 17.4344 43.5455 13.985 49.52C10.5356 55.4946 12.5826 63.1342 18.5571 66.5836C41.6355 79.9079 71.0305 87.0922 95.8918 96.8089C75.0462 80.1368 54.127 58.2722 31.0486 44.9478Z" fill="#FDFDF9"/>
</svg>
