<svg width="644" height="638" viewBox="0 0 644 638" fill="none" xmlns="http://www.w3.org/2000/svg">
<path d="M363.182 38.5001C363.182 17.2371 345.945 9.29437e-07 324.682 0C303.419 -9.29437e-07 286.182 17.2371 286.182 38.5001C286.182 120.635 312.305 210.167 324.682 291.501C337.059 210.167 363.182 120.635 363.182 38.5001Z" fill="#FDFDF9"/>
<path d="M495.86 93.8432C506.491 75.4288 500.182 51.8826 481.768 41.251C463.354 30.6195 439.807 36.9287 429.176 55.3431C388.108 126.474 365.966 217.073 336.018 293.698C387.403 229.449 454.793 164.974 495.86 93.8432Z" fill="#FDFDF9"/>
<path d="M582.287 206.936C600.701 196.305 607.01 172.758 596.379 154.344C585.747 135.93 562.201 129.62 543.787 140.252C472.656 181.319 408.181 248.709 343.932 300.095C420.558 270.146 511.156 248.003 582.287 206.936Z" fill="#FDFDF9"/>
<path d="M61.0158 423.505C42.6015 434.136 36.2922 457.683 46.9238 476.097C57.5553 494.511 81.1016 500.82 99.5159 490.189C170.646 449.122 235.122 381.732 299.371 330.346C222.745 360.295 132.146 382.438 61.0158 423.505Z" fill="#FDFDF9"/>
<path d="M151.423 93.8432C140.792 75.4288 147.101 51.8826 165.515 41.251C183.93 30.6195 207.476 36.9287 218.107 55.3431C259.175 126.474 281.317 217.073 311.266 293.698C259.88 229.449 192.491 164.974 151.423 93.8432Z" fill="#FDFDF9"/>
<path d="M495.86 543.609C506.491 562.023 500.182 585.569 481.768 596.201C463.354 606.832 439.807 600.523 429.176 582.109C388.108 510.978 365.966 420.379 336.018 343.754C387.403 408.003 454.793 472.478 495.86 543.609Z" fill="#FDFDF9"/>
<path d="M156.931 543.609C146.3 562.023 152.609 585.569 171.023 596.201C189.437 606.832 212.984 600.523 223.615 582.109C264.683 510.978 286.825 420.379 316.774 343.754C265.388 408.003 197.998 472.478 156.931 543.609Z" fill="#FDFDF9"/>
<path d="M363.182 599.5C363.182 620.763 345.945 638 324.682 638C303.419 638 286.182 620.763 286.182 599.5C286.182 517.365 312.305 427.833 324.682 346.499C337.059 427.833 363.182 517.365 363.182 599.5Z" fill="#FDFDF9"/>
<path d="M605.182 275.001C626.445 275.001 643.682 292.238 643.682 313.501C643.682 334.764 626.445 352.001 605.182 352.001C523.047 352.001 433.515 325.878 352.181 313.501C433.515 301.124 523.047 275.001 605.182 275.001Z" fill="#FDFDF9"/>
<path d="M38.6779 275.001C17.4148 275.001 0.177738 292.238 0.177736 313.501C0.177734 334.764 17.4148 352.001 38.6778 352.001C120.812 352.001 210.345 325.878 291.679 313.501C210.345 301.124 120.812 275.001 38.6779 275.001Z" fill="#FDFDF9"/>
<path d="M586.476 421.786C604.891 432.418 611.2 455.964 600.568 474.378C589.937 492.792 566.391 499.102 547.976 488.47C476.846 447.403 412.37 380.013 348.121 328.628C424.747 358.576 515.346 380.719 586.476 421.786Z" fill="#FDFDF9"/>
<path d="M95.8734 138.535C77.4591 127.904 53.9128 134.213 43.2813 152.627C32.6498 171.042 38.959 194.588 57.3733 205.219C128.504 246.287 219.103 268.429 295.728 298.378C231.48 246.992 167.004 179.602 95.8734 138.535Z" fill="#FDFDF9"/>
</svg>
