<svg width="432" height="428" viewBox="0 0 432 428" fill="none" xmlns="http://www.w3.org/2000/svg">
<path d="M243.521 25.8277C243.521 11.5634 231.957 6.2351e-07 217.693 0C203.429 -6.2351e-07 191.865 11.5634 191.865 25.8277C191.865 80.9273 209.39 140.99 217.693 195.552C225.996 140.99 243.521 80.9273 243.521 25.8277Z" fill="#E7E9FF"/>
<path d="M332.526 62.9541C339.658 50.6009 335.426 34.805 323.072 27.6729C310.719 20.5407 294.923 24.7733 287.791 37.1264C260.241 84.8441 245.387 145.622 225.296 197.026C259.768 153.925 304.976 110.672 332.526 62.9541Z" fill="#E7E9FF"/>
<path d="M390.505 138.822C402.858 131.69 407.091 115.894 399.959 103.541C392.827 91.1878 377.031 86.9553 364.678 94.0874C316.96 121.637 273.707 166.845 230.606 201.317C282.01 181.226 342.788 166.372 390.505 138.822Z" fill="#E7E9FF"/>
<path d="M40.8132 284.107C28.46 291.239 24.2275 307.035 31.3596 319.388C38.4917 331.741 54.2877 335.974 66.6408 328.842C114.358 301.292 157.612 256.084 200.713 221.612C149.309 241.702 88.5308 256.557 40.8132 284.107Z" fill="#E7E9FF"/>
<path d="M101.462 62.9541C94.3301 50.6009 98.5626 34.805 110.916 27.6729C123.269 20.5407 139.065 24.7733 146.197 37.1264C173.747 84.8441 188.601 145.622 208.692 197.026C174.22 153.925 129.012 110.672 101.462 62.9541Z" fill="#E7E9FF"/>
<path d="M332.526 364.678C339.658 377.031 335.426 392.827 323.072 399.959C310.719 407.091 294.923 402.859 287.791 390.506C260.241 342.788 245.387 282.01 225.296 230.606C259.768 273.707 304.976 316.96 332.526 364.678Z" fill="#E7E9FF"/>
<path d="M105.158 364.678C98.0254 377.031 102.258 392.827 114.611 399.959C126.964 407.091 142.76 402.859 149.892 390.506C177.442 342.788 192.297 282.01 212.387 230.606C177.915 273.707 132.707 316.96 105.158 364.678Z" fill="#E7E9FF"/>
<path d="M243.521 402.172C243.521 416.437 231.957 428 217.693 428C203.429 428 191.865 416.437 191.865 402.172C191.865 347.073 209.39 287.01 217.693 232.448C225.996 287.01 243.521 347.073 243.521 402.172Z" fill="#E7E9FF"/>
<path d="M405.864 184.484C420.128 184.484 431.691 196.047 431.691 210.311C431.691 224.575 420.128 236.139 405.864 236.139C350.764 236.139 290.702 218.614 236.139 210.311C290.702 202.008 350.764 184.484 405.864 184.484Z" fill="#E7E9FF"/>
<path d="M25.8277 184.484C11.5634 184.484 2.37598e-06 196.047 1.12896e-06 210.311C-1.18056e-07 224.575 11.5634 236.139 25.8277 236.139C80.9273 236.139 140.99 218.614 195.552 210.311C140.99 202.008 80.9273 184.484 25.8277 184.484Z" fill="#E7E9FF"/>
<path d="M393.316 282.954C405.669 290.086 409.901 305.882 402.769 318.235C395.637 330.588 379.841 334.821 367.488 327.688C319.77 300.139 276.517 254.931 233.416 220.459C284.82 240.549 345.598 255.404 393.316 282.954Z" fill="#E7E9FF"/>
<path d="M64.197 92.9359C51.8438 85.8037 36.0479 90.0362 28.9158 102.389C21.7837 114.743 26.0162 130.539 38.3694 137.671C86.087 165.22 146.865 180.075 198.269 200.166C155.168 165.694 111.915 120.486 64.197 92.9359Z" fill="#E7E9FF"/>
</svg>
