<svg width="52" height="52" viewBox="0 0 52 52" fill="none" xmlns="http://www.w3.org/2000/svg">
<rect width="52" height="52" rx="26" fill="#FDFDF9"/>
<path d="M30.9318 27.2688H30.839C30.3805 27.2695 30.009 27.6658 30.0083 28.1548V29.3902C30.0083 29.6119 29.8398 29.7917 29.6319 29.7917H22.3669C22.159 29.7917 21.9905 29.6119 21.9905 29.3902V28.1548C21.9898 27.6658 21.6183 27.2695 21.1598 27.2688H21.067C20.6085 27.2695 20.237 27.6658 20.2363 28.1548V41.1139C20.237 41.603 20.6085 41.9992 21.067 41.9999H21.1598C21.6183 41.9992 21.9898 41.603 21.9905 41.1139V39.8786C21.9905 39.6568 22.159 39.477 22.3669 39.477H29.6319C29.8398 39.477 30.0083 39.6568 30.0083 39.8786V41.1139C30.009 41.603 30.3805 41.9992 30.839 41.9999H30.9318C31.3902 41.9992 31.7615 41.6028 31.7619 41.1139V28.1548C31.7615 27.6659 31.3902 27.2695 30.9318 27.2688ZM30.0083 37.7311C30.0083 37.9529 29.8398 38.1326 29.6319 38.1326H22.3669C22.159 38.1326 21.9905 37.9529 21.9905 37.7311V35.7094C21.9905 35.4877 22.159 35.3079 22.3669 35.3079H29.6319C29.8398 35.3079 30.0083 35.4877 30.0083 35.7094V37.7311ZM30.0083 33.5606C30.0083 33.7824 29.8398 33.9621 29.6319 33.9621H22.3669C22.159 33.9621 21.9905 33.7824 21.9905 33.5606V31.5383C21.9905 31.3165 22.159 31.1368 22.3669 31.1368H29.6319C29.8398 31.1368 30.0083 31.3165 30.0083 31.5383V33.5606Z" fill="#333037"/>
<path d="M35.8057 19.6681C35.6441 19.6 35.5471 19.4227 35.5711 19.2391C35.858 17.0663 34.4393 15.0568 32.4022 14.7508C32.2297 14.7249 32.0557 14.7119 31.8815 14.712C31.4445 14.7112 31.0108 14.7927 30.6004 14.9529C30.4052 15.0292 30.189 14.9224 30.1173 14.7142C30.1146 14.7062 30.1121 14.6981 30.1098 14.6899C29.152 11.2266 25.7434 9.2472 22.4965 10.2689C19.2497 11.2905 17.394 14.9264 18.3518 18.3897C18.3944 18.5435 18.4422 18.6955 18.4952 18.8456C18.5683 19.0531 18.4698 19.2846 18.2752 19.3627C18.2327 19.3796 18.1878 19.3883 18.1426 19.3883H17.561C15.4992 19.3909 13.8288 21.1741 13.8281 23.3734V23.7113C13.8306 25.9094 15.5003 27.6908 17.561 27.6937H19.5429C19.7358 26.9667 20.3584 26.4652 21.0668 26.4664H21.1596C21.868 26.4652 22.4907 26.9667 22.6835 27.6937H29.3149C29.5078 26.9667 30.1304 26.4652 30.8388 26.4664H30.931C31.6396 26.4649 32.2626 26.9664 32.4556 27.6937H34.4368C36.4977 27.6911 38.1679 25.9096 38.1703 23.7113V23.3734C38.1757 21.7358 37.236 20.2633 35.8057 19.6681Z" fill="#333037"/>
</svg>
