<svg width="52" height="52" viewBox="0 0 52 52" fill="none" xmlns="http://www.w3.org/2000/svg">
<rect width="52" height="52" rx="26" fill="#FDFDF9"/>
<path d="M26.8789 15.6626C27.5393 15.8286 28.1276 16.1774 28.5875 16.6516L30.5213 15.5352C31.2816 15.0963 31.7354 14.3101 31.7354 13.4322C31.7355 12.5544 31.2816 11.7682 30.5213 11.3292C29.7611 10.8902 28.8532 10.8903 28.0931 11.3293C27.3328 11.7682 26.8789 12.5543 26.8789 13.4322V15.6626Z" fill="#333037"/>
<path d="M25.9992 21.0094C27.0203 21.0094 27.848 20.1816 27.848 19.1606C27.848 18.1395 27.0203 17.3118 25.9992 17.3118C24.9781 17.3118 24.1504 18.1395 24.1504 19.1606C24.1504 20.1816 24.9781 21.0094 25.9992 21.0094Z" fill="#333037"/>
<path d="M18.1712 21.2634C18.9315 21.7024 19.8392 21.7023 20.5994 21.2634L22.5316 20.1479C22.4421 19.8338 22.393 19.5029 22.393 19.1604C22.393 18.818 22.442 18.4871 22.5316 18.173L20.5994 17.0574C19.8391 16.6185 18.9314 16.6186 18.1712 17.0575C17.4109 17.4964 16.957 18.2826 16.957 19.1604C16.957 20.0383 17.4109 20.8245 18.1712 21.2634Z" fill="#333037"/>
<path d="M23.4116 16.6516C23.8715 16.1774 24.4598 15.8286 25.1202 15.6626V13.4322C25.1202 12.5544 24.6663 11.7682 23.906 11.3292C23.1458 10.8902 22.2381 10.8903 21.4778 11.3292C20.7176 11.7681 20.2637 12.5543 20.2637 13.4322C20.2637 14.3101 20.7175 15.0962 21.4778 15.5351L23.4116 16.6516Z" fill="#333037"/>
<path d="M25.1202 22.6582C24.4598 22.4922 23.8715 22.1434 23.4116 21.6692L21.4778 22.7857C20.7175 23.2246 20.2637 24.0107 20.2637 24.8886C20.2636 25.7664 20.7175 26.5526 21.4778 26.9916C22.2379 27.4305 23.1458 27.4305 23.906 26.9916C24.6663 26.5526 25.1202 25.7665 25.1202 24.8886V22.6582Z" fill="#333037"/>
<path d="M31.399 17.0574L29.4668 18.173C29.5563 18.4871 29.6054 18.818 29.6054 19.1604C29.6054 19.5029 29.5564 19.8338 29.4668 20.1479L31.399 21.2634C32.1592 21.7024 33.0669 21.7023 33.8272 21.2634C34.5875 20.8245 35.0414 20.0383 35.0414 19.1604C35.0414 18.2826 34.5875 17.4964 33.8272 17.0575C33.067 16.6185 32.1593 16.6186 31.399 17.0574Z" fill="#333037"/>
<path d="M28.5875 21.6692C28.1276 22.1434 27.5393 22.4922 26.8789 22.6582V24.8886C26.8789 25.7664 27.3328 26.5526 28.0931 26.9916C28.8533 27.4306 29.7611 27.4305 30.5213 26.9916C31.2816 26.5527 31.7354 25.7665 31.7354 24.8886C31.7354 24.0107 31.2816 23.2246 30.5213 22.7857L28.5875 21.6692Z" fill="#333037"/>
<path d="M37.5228 31.9704C36.8396 31.2488 35.7005 31.2369 35.0024 31.935L30.3319 36.6054H23.3005V34.8475H30.3319V33.9686C30.3319 32.9978 29.545 32.2107 28.5741 32.2107H26.6491C25.1851 32.2107 23.7362 31.9616 22.3379 31.5281C21.9263 31.4005 21.4889 31.3318 21.0354 31.3318C19.2335 31.3318 17.6857 32.4167 17.0075 33.9686H14.0039V41.0001H30.9093L37.4625 34.4469C38.1398 33.7696 38.1813 32.6661 37.5228 31.9704Z" fill="#333037"/>
</svg>
