<svg width="52" height="52" viewBox="0 0 52 52" fill="none" xmlns="http://www.w3.org/2000/svg">
<rect width="52" height="52" rx="26" fill="#FDFDF9"/>
<g clip-path="url(#clip0_490_3836)">
<path fill-rule="evenodd" clip-rule="evenodd" d="M26 18.2417C32.3004 18.2417 38.0732 22.1185 40.7999 25.4405C41.0668 25.7658 41.0668 26.2344 40.7999 26.5598C38.1916 29.7376 32.4434 33.7586 26 33.7586C19.7778 33.7586 13.9915 29.9621 11.2002 26.5598C10.9333 26.2344 10.9333 25.7658 11.2002 25.4405C13.904 22.1448 19.677 18.2417 26 18.2417ZM19.8234 21.3109C16.462 22.7406 14.0674 24.9682 13.0743 26.0003C14.8924 27.8934 17.2666 29.6048 19.8224 30.6881C17.7131 27.9152 17.7139 24.0828 19.8234 21.3109ZM32.1776 21.3122C34.2869 24.0851 34.2861 27.9174 32.1766 30.6893C35.5381 29.2596 37.9327 27.0321 38.9258 25.9998C37.1076 24.1069 34.7333 22.3954 32.1776 21.3122ZM23 26C23 27.6542 24.3458 29 26 29C27.6542 29 29 27.6542 29 26C29 24.3458 27.6542 23 26 23C24.3458 23 23 24.3458 23 26Z" fill="#333037"/>
<path d="M25.9995 14.8235C26.4868 14.8235 26.8819 14.4285 26.8819 13.9412V11.8824C26.8819 11.3951 26.4868 11 25.9995 11C25.5122 11 25.1172 11.3951 25.1172 11.8824V13.9412C25.1172 14.4285 25.5122 14.8235 25.9995 14.8235Z" fill="#333037"/>
<path d="M31.2657 16.0037C31.6887 16.245 32.2277 16.0979 32.4692 15.6744L33.6435 13.6155C33.8849 13.1922 33.7375 12.6534 33.3142 12.412C32.8908 12.1705 32.3521 12.3179 32.1106 12.7413L30.9364 14.8001C30.6949 15.2234 30.8424 15.7622 31.2657 16.0037Z" fill="#333037"/>
<path d="M19.5325 15.6744C19.7739 16.0976 20.3127 16.2451 20.7361 16.0036C21.1594 15.7622 21.3068 15.2234 21.0654 14.8001L19.8911 12.7412C19.6497 12.3179 19.1108 12.1705 18.6875 12.4119C18.2642 12.6534 18.1168 13.1922 18.3582 13.6155L19.5325 15.6744Z" fill="#333037"/>
<path d="M25.9995 37.1765C25.5122 37.1765 25.1172 37.5716 25.1172 38.0589V40.1177C25.1172 40.605 25.5122 41 25.9995 41C26.4868 41 26.8819 40.605 26.8819 40.1177V38.0589C26.8819 37.5716 26.4868 37.1765 25.9995 37.1765Z" fill="#333037"/>
<path d="M20.7361 35.9964C20.3128 35.755 19.7739 35.9024 19.5325 36.3257L18.3582 38.3845C18.1168 38.8078 18.2642 39.3467 18.6875 39.5881C19.1109 39.8295 19.6497 39.682 19.8911 39.2588L21.0654 37.2C21.3068 36.7767 21.1594 36.2378 20.7361 35.9964Z" fill="#333037"/>
<path d="M32.4692 36.3257C32.2278 35.9024 31.6888 35.7551 31.2657 35.9964C30.8424 36.2378 30.6949 36.7767 30.9364 37.2L32.1106 39.2588C32.3519 39.6821 32.8908 39.8295 33.3142 39.5881C33.7375 39.3467 33.8849 38.8078 33.6435 38.3845L32.4692 36.3257Z" fill="#333037"/>
</g>
<defs>
<clipPath id="clip0_490_3836">
<rect width="30" height="30" fill="white" transform="translate(11 11)"/>
</clipPath>
</defs>
</svg>
