<svg width="52" height="52" viewBox="0 0 52 52" fill="none" xmlns="http://www.w3.org/2000/svg">
<rect width="52" height="52" rx="26" fill="#FDFDF9"/>
<g clip-path="url(#clip0_490_3815)">
<path d="M20.4338 25.062H19.7051C20.0683 26.0853 21.0459 26.8201 22.1917 26.8201H22.9204C22.5574 25.7967 21.5799 25.062 20.4338 25.062Z" fill="#333037"/>
<path d="M23.9483 16.7097C23.5407 17.2446 23.0703 18.048 23.0703 18.9097C23.0703 19.769 23.5414 20.5739 23.9499 21.1095C24.3578 20.5748 24.8281 19.7715 24.8281 18.9097C24.8281 18.0505 24.3569 17.2455 23.9483 16.7097Z" fill="#333037"/>
<path d="M35.4772 22.4189C35.4089 22.2842 35.3727 22.1347 35.367 21.9838C35.1008 14.9644 28.593 9.76855 21.5004 11.2552C17.1631 12.1588 13.6534 15.6849 12.7677 20.0289C11.9893 23.8439 13.096 27.6491 15.7359 30.3693C15.9258 30.5651 16.0389 30.8245 16.0389 31.0973V40C16.0389 40.5523 16.4866 41 17.0389 41H27.3438C27.8961 41 28.3438 40.5523 28.3438 40V36.6091C28.3438 36.0568 28.7915 35.6091 29.3438 35.6091H34.3753C34.9275 35.6091 35.3753 35.1614 35.3753 34.6091V31.3357C35.3753 30.7834 35.823 30.3357 36.3753 30.3357H37.8643C38.6102 30.3357 39.0936 29.5485 38.7562 28.8833L35.4772 22.4189ZM30.1016 24.1831C30.1016 26.6063 28.13 28.5779 25.7071 28.5779C25.2217 28.5779 24.8282 28.9714 24.8282 29.4568C24.8282 29.9422 24.4347 30.3357 23.9492 30.3357C23.4638 30.3357 23.0703 29.9422 23.0703 29.4568C23.0703 28.9714 22.6766 28.5779 22.1912 28.5779C19.7683 28.5779 17.7967 26.6063 17.7967 24.1831C17.7967 23.6977 18.1902 23.3042 18.6756 23.3042H20.4334C21.0041 23.3042 21.5464 23.4177 22.0442 23.6201C22.4951 23.8034 23.0703 23.5075 23.0703 23.0208C23.0703 22.8705 23.0124 22.7268 22.9128 22.6143C22.3105 21.9342 21.3123 20.561 21.3123 18.9097C21.3123 16.6016 23.2788 14.8145 23.3628 14.739C23.6965 14.4401 24.2018 14.44 24.5354 14.739C24.6196 14.8145 26.586 16.6016 26.586 18.9097C26.586 20.5608 25.5879 21.9342 24.9857 22.6143C24.886 22.7268 24.8282 22.8705 24.8282 23.0208C24.8282 23.5075 25.4034 23.8034 25.8542 23.6201C26.352 23.4177 26.8942 23.3042 27.4649 23.3042H29.2227C29.7081 23.3042 30.1016 23.6977 30.1016 24.1831Z" fill="#333037"/>
<path d="M24.9785 26.8201H25.7073C26.8531 26.8201 27.8306 26.0853 28.1938 25.062H27.4651C26.3193 25.062 25.3415 25.7967 24.9785 26.8201Z" fill="#333037"/>
</g>
<defs>
<clipPath id="clip0_490_3815">
<rect width="30" height="30" fill="white" transform="translate(11 11)"/>
</clipPath>
</defs>
</svg>
