<svg width="53" height="53" viewBox="0 0 53 53" fill="none" xmlns="http://www.w3.org/2000/svg">
<rect width="53" height="53" rx="26.5" fill="#FDFDF9"/>
<g clip-path="url(#clip0_490_3807)">
<path d="M32.6906 26.4998C32.6906 29.9239 29.9147 32.6997 26.4906 32.6997C23.0666 32.6997 20.291 29.9239 20.291 26.4998C20.291 23.0757 23.0666 20.3002 26.4906 20.3002C29.9147 20.3002 32.6906 23.0757 32.6906 26.4998Z" fill="#333037"/>
<path d="M41.0701 25.5698H38.9972C38.5312 19.3792 33.6113 14.4584 27.4207 13.9918V11.93C27.4207 11.4163 27.0041 11 26.4907 11C25.977 11 25.5607 11.4163 25.5607 11.93V13.9918C19.3699 14.4584 14.4496 19.3792 13.9836 25.5698H11.93C11.4163 25.5698 11 25.9864 11 26.4998C11 27.0135 11.4163 27.4298 11.93 27.4298H13.9836C14.4496 33.6203 19.3699 38.5412 25.5604 39.0077V41.0701C25.5604 41.5838 25.9767 42.0001 26.4904 42.0001C27.0038 42.0001 27.4201 41.5838 27.4201 41.0701V39.0077C33.611 38.5414 38.5312 33.6206 38.9972 27.4298H41.0701C41.5838 27.4298 42.0001 27.0135 42.0001 26.4998C42.0001 25.9864 41.5838 25.5698 41.0701 25.5698ZM26.4904 37.1942C20.5842 37.194 15.7965 32.4057 15.7965 26.4995C15.7968 20.593 20.5851 15.8053 26.4913 15.8053C32.3977 15.8053 37.1857 20.5936 37.1857 26.4998C37.1786 32.4037 32.3943 37.1877 26.4904 37.1942Z" fill="#333037"/>
</g>
<defs>
<clipPath id="clip0_490_3807">
<rect width="31" height="31" fill="white" transform="translate(11 11)"/>
</clipPath>
</defs>
</svg>
