<svg width="52" height="52" viewBox="0 0 52 52" fill="none" xmlns="http://www.w3.org/2000/svg">
<rect width="52" height="52" rx="26" fill="#FDFDF9"/>
<path d="M40 26.8789H30.8672C30.3149 26.8789 29.8672 27.3266 29.8672 27.8789V30.5664C29.8672 31.1187 30.3149 31.5664 30.8672 31.5664H40C40.5523 31.5664 41 31.1187 41 30.5664V27.8789C41 27.3266 40.5523 26.8789 40 26.8789Z" fill="#333037"/>
<path d="M40 20.4336H30.8672C30.3149 20.4336 29.8672 20.8813 29.8672 21.4336V24.1211C29.8672 24.6734 30.3149 25.1211 30.8672 25.1211H40C40.5523 25.1211 41 24.6734 41 24.1211V21.4336C41 20.8813 40.5523 20.4336 40 20.4336Z" fill="#333037"/>
<path d="M40 13.9883H30.8672C30.3149 13.9883 29.8672 14.436 29.8672 14.9883V17.6758C29.8672 18.2281 30.3149 18.6758 30.8672 18.6758H40C40.5523 18.6758 41 18.2281 41 17.6758V14.9883C41 14.436 40.5523 13.9883 40 13.9883Z" fill="#333037"/>
<path d="M40 33.3242H30.8672C30.3149 33.3242 29.8672 33.7719 29.8672 34.3242V37.0117C29.8672 37.564 30.3149 38.0117 30.8672 38.0117H40C40.5523 38.0117 41 37.564 41 37.0117V34.3242C41 33.7719 40.5523 33.3242 40 33.3242Z" fill="#333037"/>
<path d="M19.4961 23.3633H13.6367C12.1828 23.3633 11 24.5461 11 26C11 27.4539 12.1828 28.6367 13.6367 28.6367H19.4961C20.95 28.6367 22.1328 27.4539 22.1328 26C22.1328 24.5461 20.95 23.3633 19.4961 23.3633Z" fill="#333037"/>
<path d="M28.1099 17.6243V15.7932C24.7481 16.6776 22.0485 19.2113 20.9316 22.473C21.2962 22.6219 21.6327 22.8256 21.9308 23.0737C21.9649 23.1021 21.9975 23.1323 22.0306 23.1618C22.0532 23.1821 22.0764 23.2016 22.0986 23.2223C22.1366 23.258 22.1732 23.2953 22.2097 23.3325C22.2254 23.3485 22.2417 23.3639 22.2571 23.3801C22.2948 23.4198 22.331 23.4609 22.367 23.5022C22.38 23.5172 22.3936 23.5318 22.4064 23.547C22.5944 23.7698 22.7574 24.0143 22.8911 24.2763C23.3088 23.8917 23.8659 23.6563 24.4771 23.6563H28.1099V21.8984H24.4771C23.9313 21.8984 23.4107 22.0066 22.9341 22.2011C23.9403 20.0406 25.8163 18.3635 28.1099 17.6243Z" fill="#333037"/>
<path d="M28.1098 30.1015V28.3437H24.477C23.8658 28.3437 23.3087 28.1082 22.8911 27.7236C22.7575 27.9857 22.5944 28.2301 22.4064 28.4529C22.3936 28.4682 22.38 28.4827 22.367 28.4977C22.331 28.539 22.2948 28.5801 22.2571 28.6198C22.2417 28.6361 22.2254 28.6515 22.2097 28.6675C22.1731 28.7047 22.1366 28.7419 22.0986 28.7776C22.0764 28.7984 22.0532 28.8179 22.0306 28.8381C21.9975 28.8677 21.9649 28.8977 21.9308 28.9262C21.6326 29.1744 21.2962 29.378 20.9316 29.5269C22.0484 32.7886 24.7481 35.3224 28.1098 36.2067V34.3757C25.8162 33.6364 23.9403 31.9593 22.9341 29.7988C23.4107 29.9933 23.9313 30.1015 24.477 30.1015H28.1098Z" fill="#333037"/>
</svg>
