<svg width="22" height="16" viewBox="0 0 22 16" fill="none" xmlns="http://www.w3.org/2000/svg">
<path d="M0.102379 13.906C0.528752 15.4126 2.16436 16.3068 3.7556 15.9031C7.87795 14.8572 12.0137 12.9155 16.0519 11.0197C18.0349 10.0887 19.9944 9.16875 21.9172 8.37134C19.8309 8.59109 17.6482 8.72207 15.4393 8.85462C10.9409 9.12456 6.33392 9.40101 2.21157 10.4469C0.620322 10.8506 -0.323995 12.3993 0.102379 13.906Z" fill="#333037"/>
<path d="M0.185145 2.09404C-0.241229 3.60072 0.703089 5.1494 2.29434 5.55311C6.41668 6.59899 11.0237 6.87544 15.522 7.14538C17.731 7.27794 19.9137 7.40892 22 7.62867C20.0772 6.83126 18.1177 5.91132 16.1347 4.98035C12.0965 3.08447 7.96072 1.14281 3.83837 0.0969381C2.24712 -0.306776 0.611519 0.587354 0.185145 2.09404Z" fill="#333037"/>
</svg>
