<svg width="16" height="22" viewBox="0 0 16 22" fill="none" xmlns="http://www.w3.org/2000/svg">
<path d="M13.906 21.8976C15.4126 21.4712 16.3068 19.8356 15.9031 18.2444C14.8572 14.122 12.9155 9.9863 11.0197 5.94806C10.0887 3.96507 9.16875 2.00559 8.37134 0.0827659C8.59109 2.16907 8.72207 4.35181 8.85462 6.56074C9.12456 11.0591 9.40101 15.6661 10.4469 19.7884C10.8506 21.3797 12.3993 22.324 13.906 21.8976Z" fill="#333037"/>
<path d="M2.09404 21.8149C3.60072 22.2412 5.1494 21.2969 5.55311 19.7057C6.59899 15.5833 6.87544 10.9763 7.14538 6.47798C7.27794 4.26904 7.40892 2.0863 7.62867 3.65922e-07C6.83126 1.92283 5.91132 3.88231 4.98035 5.8653C3.08447 9.90353 1.14281 14.0393 0.096938 18.1616C-0.306776 19.7529 0.587354 21.3885 2.09404 21.8149Z" fill="#333037"/>
</svg>
