<svg width="22" height="16" viewBox="0 0 22 16" fill="none" xmlns="http://www.w3.org/2000/svg">
<path d="M21.8976 2.09403C21.4712 0.587353 19.8356 -0.306776 18.2444 0.0969376C14.122 1.14281 9.9863 3.08447 5.94806 4.98034C3.96507 5.91131 2.00559 6.83125 0.0827656 7.62866C2.16907 7.40891 4.35181 7.27793 6.56074 7.14538C11.0591 6.87544 15.6661 6.59899 19.7884 5.55311C21.3797 5.1494 22.324 3.60072 21.8976 2.09403Z" fill="#333037"/>
<path d="M21.8149 13.906C22.2412 12.3993 21.2969 10.8506 19.7057 10.4469C15.5833 9.40101 10.9763 9.12456 6.47798 8.85462C4.26904 8.72206 2.0863 8.59108 0 8.37133C1.92283 9.16874 3.88231 10.0887 5.8653 11.0197C9.90353 12.9155 14.0393 14.8572 18.1616 15.9031C19.7529 16.3068 21.3885 15.4126 21.8149 13.906Z" fill="#333037"/>
</svg>
