<svg width="16" height="22" viewBox="0 0 16 22" fill="none" xmlns="http://www.w3.org/2000/svg">
<path d="M13.906 0.102378C15.4126 0.528752 16.3068 2.16436 15.9031 3.7556C14.8572 7.87795 12.9155 12.0137 11.0197 16.0519C10.0887 18.0349 9.16875 19.9944 8.37134 21.9172C8.59109 19.8309 8.72207 17.6482 8.85462 15.4393C9.12456 10.9409 9.40101 6.33391 10.4469 2.21157C10.8506 0.620321 12.3993 -0.323996 13.906 0.102378Z" fill="#333037"/>
<path d="M2.09404 0.185145C3.60072 -0.241229 5.1494 0.703088 5.55311 2.29434C6.59899 6.41668 6.87544 11.0237 7.14538 15.522C7.27794 17.731 7.40892 19.9137 7.62867 22C6.83126 20.0772 5.91132 18.1177 4.98035 16.1347C3.08447 12.0965 1.14281 7.96072 0.096938 3.83837C-0.306776 2.24712 0.587354 0.611519 2.09404 0.185145Z" fill="#333037"/>
</svg>
