<svg width="36" height="36" viewBox="0 0 36 36" fill="none" xmlns="http://www.w3.org/2000/svg">
<path d="M18 0C8.056 0 0 8.056 0 18C0 27.944 8.056 36 18 36C27.944 36 36 27.944 36 18C36 8.056 27.944 0 18 0ZM23.168 11.288C23.168 11.288 21.264 11.272 20.784 11.272C20.064 11.272 19.584 11.896 19.584 12.528V15.176H23.168L22.76 18.784H19.544V28H15.904V18.832H12.832V15.136H15.952C15.952 15.136 15.952 13.84 15.952 11.648C15.952 9.704 18.112 7.992 19.616 7.992C19.84 7.992 23.168 8.024 23.168 8.024V11.288Z" fill="#A46CEC"/>
</svg>
