<svg width="36" height="36" viewBox="0 0 36 36" fill="none" xmlns="http://www.w3.org/2000/svg">
<g clip-path="url(#clip0_170_318)">
<path d="M21.9321 10H14.0679C11.8281 10 10 11.8199 10 14.0679V21.9321C10 24.1719 11.8199 26 14.0679 26H21.9321C24.1719 26 26 24.1801 26 21.9321V14.0679C25.9918 11.8199 24.1719 10 21.9321 10ZM17.9959 23.2578C15.0973 23.2578 12.7339 20.8945 12.7339 17.9959C12.7339 15.0973 15.0973 12.7339 17.9959 12.7339C20.8945 12.7339 23.2578 15.0973 23.2578 17.9959C23.2578 20.8945 20.8945 23.2578 17.9959 23.2578ZM23.5214 13.3186C23.0273 13.3186 22.632 12.9233 22.632 12.4292C22.632 11.9352 23.0273 11.5399 23.5214 11.5399C24.0154 11.5399 24.4107 11.9352 24.4107 12.4292C24.4107 12.9233 24.0154 13.3186 23.5214 13.3186Z" fill="#FDFDF9"/>
<path d="M21.1906 18.0373C21.2111 16.3326 19.8458 14.9342 18.1411 14.9137C16.4365 14.8932 15.038 16.2586 15.0175 17.9632C14.9971 19.6679 16.3624 21.0664 18.067 21.0868C19.7717 21.1073 21.1702 19.742 21.1906 18.0373Z" fill="#FDFDF9"/>
<path d="M18 0C8.056 0 0 8.056 0 18C0 27.944 8.056 36 18 36C27.944 36 36 27.944 36 18C36 8.056 27.944 0 18 0ZM28 21.824C28 25.232 25.232 28 21.824 28H14.184C10.776 28 8.008 25.232 8.008 21.824V14.184C8.008 10.776 10.776 8.008 14.184 8.008H21.824C25.232 8.008 28 10.776 28 14.184V21.824Z" fill="#FDFDF9"/>
</g>
<defs>
<clipPath id="clip0_170_318">
<rect width="36" height="36" fill="white"/>
</clipPath>
</defs>
</svg>
