<svg width="509" height="503" viewBox="0 0 509 503" fill="none" xmlns="http://www.w3.org/2000/svg">
<path fill-rule="evenodd" clip-rule="evenodd" d="M71.4635 68.4652C82.7831 57.1456 102.261 58.271 114.969 70.9789C147.891 103.9 176.546 145.066 204.525 185.261L204.525 185.261L204.525 185.261L204.526 185.262L204.526 185.262L204.526 185.263L204.527 185.263C218.266 205 231.841 224.503 245.679 242.681C227.501 228.842 207.997 215.266 188.259 201.527C148.064 173.547 106.899 144.892 73.9772 111.971C61.2693 99.2629 60.1439 79.7848 71.4635 68.4652ZM188.977 2.7125C205.629 -1.74947 222.745 8.13275 227.207 24.785C238.767 67.9251 241.822 116.137 244.806 163.212V163.212C246.271 186.328 247.718 209.17 250.147 231.003C241.334 210.882 231.167 190.377 220.878 169.626L220.878 169.625L220.878 169.625L220.877 169.624L220.877 169.624C199.923 127.364 178.463 84.0834 166.904 40.9433C162.442 24.291 172.324 7.17448 188.977 2.7125ZM341.59 40.0865C346.052 23.4342 336.17 6.31769 319.518 1.85572C302.865 -2.60624 285.749 7.27596 281.287 23.9283C269.728 67.0683 266.672 115.28 263.689 162.355V162.356L263.688 162.359C262.223 185.474 260.776 208.315 258.347 230.147C267.16 210.025 277.327 189.52 287.616 168.769L287.616 168.769L287.616 168.769L287.617 168.768L287.617 168.768L287.617 168.768L287.617 168.767L287.617 168.767L287.617 168.767L287.617 168.767C308.571 126.507 330.031 83.2265 341.59 40.0865ZM188.976 501.318C172.324 496.856 162.442 479.74 166.904 463.088C178.463 419.948 199.923 376.667 220.876 334.407L220.877 334.407L220.877 334.407L220.877 334.407L220.877 334.406L220.877 334.406L220.877 334.406C231.166 313.654 241.333 293.149 250.146 273.027C247.718 294.859 246.27 317.699 244.805 340.814L244.805 340.817L244.805 340.818L244.805 340.819C241.822 387.894 238.766 436.106 227.207 479.246C222.745 495.898 205.628 505.78 188.976 501.318ZM29.7461 222.246C13.0938 217.784 3.2116 200.668 7.67358 184.015C12.1356 167.363 29.252 157.481 45.9043 161.943C89.0444 173.502 132.325 194.962 174.585 215.916L174.585 215.916C195.337 226.205 215.843 236.373 235.965 245.186C214.132 242.757 191.29 241.309 168.173 239.844L168.173 239.844C121.098 236.861 72.8862 233.805 29.7461 222.246ZM507.14 320.875C511.602 304.223 501.72 287.106 485.068 282.644C441.928 271.085 393.717 268.03 346.642 265.046L346.641 265.046C323.525 263.581 300.682 262.133 278.849 259.705C298.971 268.517 319.475 278.684 340.226 288.973L340.227 288.973L340.227 288.974L340.228 288.974L340.228 288.974L340.229 288.974L340.229 288.975C382.489 309.929 425.77 331.388 468.91 342.948C485.562 347.41 502.678 337.527 507.14 320.875ZM290.769 476.943C295.231 493.595 312.347 503.477 328.999 499.015C345.652 494.553 355.534 477.437 351.072 460.784C339.513 417.644 318.053 374.364 297.099 332.104C286.81 311.352 276.642 290.846 267.829 270.724C270.258 292.557 271.705 315.399 273.17 338.516C276.154 385.591 279.209 433.802 290.769 476.943ZM440.393 437.393C451.713 426.073 451.193 407.201 439.233 395.241C408.248 364.256 369.136 337.654 330.946 311.68L330.946 311.68C312.193 298.925 293.662 286.322 276.425 273.425C289.322 290.662 301.926 309.193 314.681 327.946C340.655 366.136 367.256 405.248 398.241 436.233C410.201 448.193 429.074 448.712 440.393 437.393ZM398.241 69.6249C410.202 57.6645 429.074 57.1451 440.393 68.4647C451.713 79.7844 451.194 98.6565 439.233 110.617C408.248 141.602 369.136 168.203 330.947 194.177C312.193 206.932 293.663 219.536 276.426 232.433C289.322 215.196 301.926 196.665 314.681 177.912L314.681 177.911C340.655 139.722 367.256 100.61 398.241 69.6249ZM71.4637 437.392C60.1441 426.073 60.6635 407.201 72.6239 395.24C103.609 364.255 142.721 337.654 180.91 311.68L180.91 311.68L180.91 311.68C199.664 298.925 218.195 286.322 235.432 273.425C222.535 290.662 209.931 309.192 197.176 327.946C171.202 366.135 144.601 405.247 113.616 436.232C101.655 448.193 82.7834 448.712 71.4637 437.392ZM467.187 160.838C483.839 156.376 500.956 166.258 505.418 182.911C509.88 199.563 499.997 216.68 483.345 221.141C440.205 232.701 391.993 235.756 344.918 238.74C321.802 240.205 298.96 241.652 277.127 244.081C297.249 235.268 317.755 225.1 338.507 214.811C380.767 193.857 424.047 172.398 467.187 160.838ZM1.46265 317.936C-2.99933 301.284 6.88289 284.168 23.5352 279.706C66.6753 268.146 114.887 265.091 161.962 262.107C185.078 260.642 207.921 259.195 229.754 256.766C209.631 265.579 189.126 275.747 168.374 286.036C126.114 306.99 82.8335 328.45 39.6934 340.009C23.0411 344.471 5.92462 334.589 1.46265 317.936Z" fill="#E8EBD4"/>
</svg>
