<svg width="148" height="36" viewBox="0 0 148 36" fill="none" xmlns="http://www.w3.org/2000/svg">
<path d="M20 2.24528C20 1.00525 19.1046 5.42037e-08 18 0C16.8954 -5.42037e-08 16 1.00525 16 2.24528C16 7.03527 17.357 12.2567 18 17C18.643 12.2567 20 7.03527 20 2.24528Z" fill="#333037"/>
<path d="M27.7298 5.46736C28.3246 4.4372 27.9716 3.11993 26.9415 2.52516C25.9113 1.9304 24.594 2.28336 23.9993 3.31352C21.7018 7.29283 20.463 12.3613 18.7876 16.648C21.6623 13.0537 25.4324 9.44667 27.7298 5.46736Z" fill="#333037"/>
<path d="M32.564 11.7948C33.5941 11.2 33.9471 9.88275 33.3523 8.85259C32.7575 7.82242 31.4403 7.46946 30.4101 8.06422C26.4308 10.3617 22.8238 14.1317 19.2295 17.0064C23.5162 15.331 28.5846 14.0922 32.564 11.7948Z" fill="#333037"/>
<path d="M3.40285 23.9103C2.37268 24.5051 2.01972 25.8223 2.61449 26.8525C3.20925 27.8827 4.52652 28.2356 5.55669 27.6409C9.53599 25.3434 13.143 21.5734 16.7373 18.6987C12.4506 20.3741 7.38215 21.6128 3.40285 23.9103Z" fill="#333037"/>
<path d="M8.46159 5.46736C7.86683 4.4372 8.21979 3.11993 9.24995 2.52516C10.2801 1.9304 11.5974 2.28336 12.1922 3.31352C14.4896 7.29283 15.7284 12.3613 17.4038 16.648C14.5291 13.0537 10.759 9.44667 8.46159 5.46736Z" fill="#333037"/>
<path d="M27.7298 30.6293C28.3246 31.6595 27.9716 32.9768 26.9415 33.5715C25.9113 34.1663 24.594 33.8133 23.9993 32.7832C21.7018 28.8038 20.463 23.7354 18.7876 19.4487C21.6623 23.043 25.4324 26.65 27.7298 30.6293Z" fill="#333037"/>
<path d="M8.77019 30.6293C8.17542 31.6595 8.52838 32.9768 9.55855 33.5715C10.5887 34.1663 11.906 33.8133 12.5007 32.7832C14.7982 28.8038 16.0369 23.7354 17.7124 19.4487C14.8377 23.043 11.0676 26.65 8.77019 30.6293Z" fill="#333037"/>
<path d="M20 33.8868C20 35.0539 19.1046 36 18 36C16.8954 36 16 35.0539 16 33.8868C16 29.3786 17.357 24.4643 18 20C18.643 24.4643 20 29.3786 20 33.8868Z" fill="#333037"/>
<path d="M33.8868 16C35.0539 16 36 16.8954 36 18C36 19.1046 35.0539 20 33.8868 20C29.3786 20 24.4643 18.643 20 18C24.4643 17.357 29.3786 16 33.8868 16Z" fill="#333037"/>
<path d="M2.11321 16C0.946116 16 1.8672e-07 16.8954 8.74228e-08 18C-1.18748e-08 19.1046 0.946115 20 2.11321 20C6.62143 20 11.5357 18.643 16 18C11.5357 17.357 6.62143 16 2.11321 16Z" fill="#333037"/>
<path d="M32.8003 23.8141C33.8304 24.4089 34.1834 25.7261 33.5886 26.7563C32.9939 27.7865 31.6766 28.1394 30.6464 27.5447C26.6671 25.2472 23.0601 21.4772 19.4658 18.6025C23.7525 20.2779 28.821 21.5166 32.8003 23.8141Z" fill="#333037"/>
<path d="M5.35506 7.96794C4.32489 7.37317 3.00763 7.72613 2.41286 8.7563C1.81809 9.78647 2.17105 11.1037 3.20122 11.6985C7.18053 13.996 12.249 15.2347 16.5357 16.9101C12.9414 14.0354 9.33437 10.2654 5.35506 7.96794Z" fill="#333037"/>
<path d="M48.4212 26.1577H46V9.72819H48.4212L56.5185 21.9362V9.72819H58.9397V26.1577H56.5185L48.4212 13.9383V26.1577Z" fill="#333037"/>
<path d="M67.5978 26.5C65.7553 26.5 64.2668 25.9105 63.1323 24.7315C62.0055 23.5526 61.4421 22.0085 61.4421 20.0993C61.4421 18.0913 61.9941 16.4902 63.0981 15.296C64.2097 14.0942 65.6715 13.4933 67.4836 13.4933C69.3642 13.4933 70.8185 14.1398 71.8463 15.4329C72.8742 16.7183 73.3234 18.464 73.194 20.6698H64.0003C64.0993 21.8183 64.4457 22.7045 65.0396 23.3282C65.6335 23.9443 66.4481 24.2523 67.4836 24.2523C68.2222 24.2523 68.8655 24.085 69.4137 23.7503C69.9619 23.4157 70.3883 22.9289 70.6928 22.2899L73.0341 23.0315C72.562 24.1192 71.8387 24.9711 70.8641 25.5872C69.8896 26.1958 68.8008 26.5 67.5978 26.5ZM67.575 15.604C65.5421 15.604 64.3696 16.6727 64.0574 18.8101H70.7499C70.6205 17.7224 70.2931 16.9161 69.7678 16.3913C69.25 15.8664 68.5191 15.604 67.575 15.604Z" fill="#333037"/>
<path d="M79.8556 26.1577H77.937L74.1681 13.8242L76.5322 13.8356L79.1133 22.2899L81.7172 13.8356H83.7729L86.3769 22.2899L88.9579 13.8356H91.3106L87.5418 26.1577H85.6231L82.7451 17.2356L79.8556 26.1577Z" fill="#333037"/>
<path d="M100.178 26.1577H97.9286V9.72819H100.087L106.049 22.0846L111.976 9.72819H114.157V26.1463H111.896V14.9081L106.585 26.1577H105.5L100.178 14.9081V26.1577Z" fill="#333037"/>
<path d="M119.972 11.8161H117.586V9.5H119.972V11.8161ZM119.972 26.1577H117.586V13.8356H119.972V26.1577Z" fill="#333037"/>
<path d="M125.812 26.1577H123.391V13.8356H125.526V15.3074C126.486 14.1056 127.845 13.5047 129.604 13.5047C130.19 13.5047 130.723 13.5808 131.202 13.7329C131.69 13.8774 132.097 14.0714 132.424 14.3148C132.759 14.5582 133.053 14.851 133.304 15.1933C133.555 15.5356 133.753 15.8817 133.898 16.2315C134.042 16.5738 134.16 16.9427 134.252 17.3383C134.343 17.7262 134.404 18.0761 134.435 18.3879C134.465 18.6998 134.48 19.0078 134.48 19.3121V26.1577H132.059V20.0993C132.059 19.6734 132.036 19.2779 131.99 18.9128C131.945 18.54 131.853 18.1559 131.716 17.7604C131.579 17.3573 131.4 17.015 131.18 16.7336C130.959 16.4521 130.654 16.2201 130.266 16.0376C129.885 15.855 129.444 15.7638 128.941 15.7638C128.005 15.7638 127.247 16.0832 126.668 16.7221C126.097 17.3611 125.812 18.3689 125.812 19.7456V26.1577Z" fill="#333037"/>
<path d="M142.198 26.5C141.079 26.5 140.089 26.2148 139.229 25.6443C138.376 25.0662 137.725 24.2866 137.276 23.3054C136.834 22.3242 136.614 21.2175 136.614 19.9852C136.614 18.0913 137.124 16.5358 138.144 15.3188C139.172 14.1018 140.538 13.4933 142.244 13.4933C143.584 13.4933 144.703 13.8888 145.602 14.6799V9.72819H148V26.1577H145.876V25.0282C144.932 26.0094 143.706 26.5 142.198 26.5ZM142.529 24.3436C143.656 24.3436 144.494 23.9557 145.042 23.1799C145.598 22.3964 145.876 21.3315 145.876 19.9852C145.876 18.6541 145.602 17.6007 145.053 16.8248C144.513 16.0414 143.698 15.6497 142.609 15.6497C141.475 15.6497 140.615 16.0528 140.028 16.8591C139.442 17.6653 139.149 18.7074 139.149 19.9852C139.149 21.2707 139.434 22.3204 140.006 23.1342C140.584 23.9405 141.425 24.3436 142.529 24.3436Z" fill="#333037"/>
</svg>
