<svg id="e5BRbN1pxWv1" xmlns="http://www.w3.org/2000/svg" xmlns:xlink="http://www.w3.org/1999/xlink" viewBox="0 0 60 60" shape-rendering="geometricPrecision" text-rendering="geometricPrecision">
<style><![CDATA[
#e5BRbN1pxWv2 {animation: e5BRbN1pxWv2_c_o 2400ms linear infinite normal forwards}@keyframes e5BRbN1pxWv2_c_o { 0% {opacity: 1} 8.333333% {opacity: 0.03} 100% {opacity: 0.03}} #e5BRbN1pxWv3 {animation: e5BRbN1pxWv3_c_o 2400ms linear infinite normal forwards}@keyframes e5BRbN1pxWv3_c_o { 0% {opacity: 0.03} 8.333333% {opacity: 0.03} 12.5% {opacity: 1} 16.666667% {opacity: 0.03} 100% {opacity: 0.03}} #e5BRbN1pxWv4 {animation: e5BRbN1pxWv4_c_o 2400ms linear infinite normal forwards}@keyframes e5BRbN1pxWv4_c_o { 0% {opacity: 0.03} 8.333333% {opacity: 0.03} 12.5% {opacity: 0.03} 16.666667% {opacity: 0.03} 20.833333% {opacity: 1} 25% {opacity: 0.03} 100% {opacity: 0.03}} #e5BRbN1pxWv5 {animation: e5BRbN1pxWv5_c_o 2400ms linear infinite normal forwards}@keyframes e5BRbN1pxWv5_c_o { 0% {opacity: 0.03} 66.666667% {opacity: 0.03} 70.833333% {opacity: 1} 75% {opacity: 0.03} 100% {opacity: 0.03}} #e5BRbN1pxWv6 {animation: e5BRbN1pxWv6_c_o 2400ms linear infinite normal forwards}@keyframes e5BRbN1pxWv6_c_o { 0% {opacity: 0.03} 91.666667% {opacity: 0.03} 95.833333% {opacity: 1} 100% {opacity: 0.03}} #e5BRbN1pxWv7 {animation: e5BRbN1pxWv7_c_o 2400ms linear infinite normal forwards}@keyframes e5BRbN1pxWv7_c_o { 0% {opacity: 0.03} 41.666667% {opacity: 0.03} 45.833333% {opacity: 1} 50% {opacity: 0.03} 100% {opacity: 0.03}} #e5BRbN1pxWv8 {animation: e5BRbN1pxWv8_c_o 2400ms linear infinite normal forwards}@keyframes e5BRbN1pxWv8_c_o { 0% {opacity: 0.03} 58.333333% {opacity: 0.03} 62.5% {opacity: 1} 66.666667% {opacity: 0.03} 100% {opacity: 0.03}} #e5BRbN1pxWv9 {animation: e5BRbN1pxWv9_c_o 2400ms linear infinite normal forwards}@keyframes e5BRbN1pxWv9_c_o { 0% {opacity: 0.03} 50% {opacity: 0.03} 54.166667% {opacity: 1} 58.333333% {opacity: 0.03} 100% {opacity: 0.03}} #e5BRbN1pxWv10 {animation: e5BRbN1pxWv10_c_o 2400ms linear infinite normal forwards}@keyframes e5BRbN1pxWv10_c_o { 0% {opacity: 0.03} 25% {opacity: 0.03} 29.166667% {opacity: 1} 33.333333% {opacity: 0.03} 100% {opacity: 0.03}} #e5BRbN1pxWv11 {animation: e5BRbN1pxWv11_c_o 2400ms linear infinite normal forwards}@keyframes e5BRbN1pxWv11_c_o { 0% {opacity: 0.03} 75% {opacity: 0.03} 79.166667% {opacity: 1} 83.333333% {opacity: 0.03} 100% {opacity: 0.03}} #e5BRbN1pxWv12 {animation: e5BRbN1pxWv12_c_o 2400ms linear infinite normal forwards}@keyframes e5BRbN1pxWv12_c_o { 0% {opacity: 0.03} 33.333333% {opacity: 0.03} 37.5% {opacity: 1} 41.666667% {opacity: 0.03} 100% {opacity: 0.03}} #e5BRbN1pxWv13 {animation: e5BRbN1pxWv13_c_o 2400ms linear infinite normal forwards}@keyframes e5BRbN1pxWv13_c_o { 0% {opacity: 0.03} 83.333333% {opacity: 0.03} 87.5% {opacity: 1} 91.666667% {opacity: 0.03} 100% {opacity: 0.03}}
]]></style>
<path id="e5BRbN1pxWv2" d="M33.3327,3.74214C33.3327,1.67541,31.8403,0,29.9993,0s-3.3333,1.67541-3.3333,3.74214c0,7.98336,2.2618,16.68566,3.3334,24.59116c1.0715-7.9055,3.3333-16.6078,3.3333-24.59116Z" fill="#333037"/><path id="e5BRbN1pxWv3" d="M46.2157,9.11211c.9913-1.71694.403-3.91239-1.3139-4.90367-1.717-.99128-3.9124-.40301-4.9037,1.31394C36.169,12.1546,34.1044,20.602,31.3121,27.7465C36.1032,21.756,42.3866,15.7443,46.2157,9.11211Z" transform="translate(-.030524 0)" opacity="0.03" fill="#333037"/><path id="e5BRbN1pxWv4" d="M54.2739,19.658c1.7169-.9913,2.3052-3.1867,1.3139-4.9037s-3.1867-2.3052-4.9036-1.3139C44.052,17.2695,38.0403,23.5528,32.0498,28.344c7.1445-2.7923,15.5919-4.8569,22.2241-8.686Z" opacity="0.03" fill="#333037"/><path id="e5BRbN1pxWv5" d="M5.67141,39.8503c-1.71694.9913-2.30521,3.1867-1.31393,4.9037s3.18672,2.3052,4.90366,1.3139C15.8933,42.2388,21.905,35.9555,27.8955,31.1643c-7.1445,2.7923-15.5919,4.8569-22.22409,8.686Z" opacity="0.03" fill="#333037"/><path id="e5BRbN1pxWv6" d="M14.1027,9.11211c-.9913-1.71694-.4031-3.91239,1.3139-4.90367s3.9124-.40301,4.9037,1.31394c3.829,6.63222,5.8936,15.07962,8.686,22.22412C24.2151,21.756,17.9317,15.7443,14.1027,9.11211Z" opacity="0.03" fill="#333037"/><path id="e5BRbN1pxWv7" d="M46.2157,51.049c.9913,1.717.403,3.9124-1.3139,4.9037-1.717.9913-3.9124.403-4.9037-1.3139-3.8291-6.6322-5.8937-15.0796-8.686-22.2242c4.7911,5.9906,11.0745,12.0022,14.9036,18.6344Z" transform="translate(-.030524 0)" opacity="0.03" fill="#333037"/><path id="e5BRbN1pxWv8" d="M14.6163,51.049c-.9913,1.717-.403,3.9124,1.314,4.9037s3.9124.403,4.9036-1.3139c3.8291-6.6322,5.8937-15.0796,8.6861-22.2242-4.7912,5.9906-11.0746,12.0022-14.9037,18.6344Z" opacity="0.03" fill="#333037"/><path id="e5BRbN1pxWv9" d="M33.3327,56.478c0,1.9451-1.4924,3.522-3.3334,3.522s-3.3333-1.5769-3.3333-3.522c0-7.5137,2.2618-15.7042,3.3334-23.1447c1.0715,7.4405,3.3333,15.631,3.3333,23.1447Z" opacity="0.03" fill="#333037"/><path id="e5BRbN1pxWv10" d="M56.478,26.6668c1.9451,0,3.522,1.4924,3.522,3.3334s-1.5769,3.3333-3.522,3.3333c-7.5137,0-15.7042-2.2618-23.1447-3.3333c7.4405-1.0716,15.631-3.3334,23.1447-3.3334Z" opacity="0.03" fill="#333037"/><path id="e5BRbN1pxWv11" d="M3.52201,26.6668C1.57686,26.6668,0,28.1592,0,30.0002s1.57686,3.3333,3.52201,3.3333c7.51369,0,15.70419-2.2618,23.14469-3.3333-7.4405-1.0716-15.631-3.3334-23.14469-3.3334Z" opacity="0.03" fill="#333037"/><path id="e5BRbN1pxWv12" d="M54.6665,39.6902c1.7169.9912,2.3052,3.1867,1.3139,4.9036s-3.1867,2.3052-4.9037,1.314c-6.6321-3.8291-12.6438-10.1125-18.6343-14.9037c7.1445,2.7924,15.5919,4.857,22.2241,8.6861Z" opacity="0.03" fill="#333037"/><path id="e5BRbN1pxWv13" d="M8.9251,13.2799c-1.71695-.9913-3.91239-.403-4.90367,1.3139s-.40301,3.9124,1.31393,4.9037c6.63214,3.8291,15.07954,5.8937,22.22414,8.686C21.569,23.3924,15.5573,17.109,8.9251,13.2799Z" opacity="0.03" fill="#333037"/></svg>
