<svg width="72" height="72" viewBox="0 0 72 72" fill="none" xmlns="http://www.w3.org/2000/svg">
<path opacity="0.1" d="M40 4.49057C40 2.0105 38.2091 1.08407e-07 36 0C33.7909 -1.08407e-07 32 2.01049 32 4.49057C32 14.0705 34.7141 24.5134 36 34C37.2859 24.5134 40 14.0705 40 4.49057Z" fill="#333037"/>
<path opacity="0.1" d="M55.4616 10.9352C56.6511 8.87488 55.9452 6.24035 53.8849 5.05081C51.8245 3.86128 49.19 4.5672 48.0005 6.62753C43.4055 14.5861 40.9281 24.723 37.5772 33.2965C43.3266 26.1079 50.8667 18.8938 55.4616 10.9352Z" fill="#333037"/>
<path opacity="0.1" d="M65.1299 23.5896C67.1902 22.4 67.8961 19.7655 66.7066 17.7052C65.517 15.6448 62.8825 14.9389 60.8222 16.1284C52.8636 20.7234 45.6495 28.2634 38.4609 34.0128C47.0344 30.662 57.1712 28.1845 65.1299 23.5896Z" fill="#333037"/>
<path opacity="0.1" d="M6.80569 47.8201C4.74536 49.0096 4.03944 51.6442 5.22897 53.7045C6.41851 55.7648 9.05304 56.4708 11.1134 55.2812C19.072 50.6863 26.286 43.1463 33.4746 37.3968C24.9012 40.7477 14.7643 43.2252 6.80569 47.8201Z" fill="#333037"/>
<path opacity="0.1" d="M16.9212 10.9352C15.7317 8.87488 16.4376 6.24035 18.498 5.05081C20.5583 3.86128 23.1928 4.5672 24.3824 6.62753C28.9773 14.5861 31.4548 24.723 34.8056 33.2965C29.0562 26.1079 21.5161 18.8938 16.9212 10.9352Z" fill="#333037"/>
<path d="M55.4616 61.2591C56.6511 63.3195 55.9452 65.954 53.8849 67.1435C51.8245 68.3331 49.19 67.6271 48.0005 65.5668C43.4055 57.6082 40.9281 47.4713 37.5772 38.8978C43.3266 46.0865 50.8667 53.3005 55.4616 61.2591Z" fill="#333037"/>
<path opacity="0.1" d="M17.5384 61.2591C16.3489 63.3195 17.0548 65.954 19.1151 67.1435C21.1755 68.3331 23.81 67.6271 24.9995 65.5668C29.5945 57.6082 32.0719 47.4713 35.4228 38.8978C29.6734 46.0865 22.1333 53.3005 17.5384 61.2591Z" fill="#333037"/>
<path opacity="0.1" d="M40 67.7736C40 70.1078 38.2091 72 36 72C33.7909 72 32 70.1078 32 67.7736C32 58.7571 34.7141 48.9286 36 40C37.2859 48.9286 40 58.7571 40 67.7736Z" fill="#333037"/>
<path opacity="0.1" d="M67.7736 32C70.1078 32 72 33.7909 72 36C72 38.2091 70.1078 40 67.7736 40C58.7571 40 48.9286 37.2859 40 36C48.9286 34.7141 58.7571 32 67.7736 32Z" fill="#333037"/>
<path opacity="0.1" d="M4.22642 32C1.89223 32 3.73441e-07 33.7909 1.74846e-07 36C-2.37496e-08 38.2091 1.89223 40 4.22642 40C13.2429 40 23.0714 37.2859 32 36C23.0714 34.7141 13.2429 32 4.22642 32Z" fill="#333037"/>
<path opacity="0.1" d="M65.6006 47.6282C67.6609 48.8177 68.3668 51.4523 67.1773 53.5126C65.9877 55.5729 63.3532 56.2789 61.2929 55.0893C53.3343 50.4944 46.1202 42.9544 38.9316 37.205C47.5051 40.5558 57.6419 43.0333 65.6006 47.6282Z" fill="#333037"/>
<path opacity="0.1" d="M10.7082 15.9359C8.64783 14.7463 6.0133 15.4523 4.82376 17.5126C3.63423 19.5729 4.34015 22.2075 6.40048 23.397C14.3591 27.9919 24.496 30.4694 33.0694 33.8202C25.8808 28.0708 18.6668 20.5308 10.7082 15.9359Z" fill="#333037"/>
</svg>
