<svg width="236" height="234" viewBox="0 0 236 234" fill="none" xmlns="http://www.w3.org/2000/svg">
<path d="M132.679 14.0718C132.679 6.30014 126.379 3.39708e-07 118.607 0C110.835 -3.39708e-07 104.535 6.30014 104.535 14.0717C104.535 44.0918 114.083 76.8158 118.607 106.543C123.131 76.8158 132.679 44.0918 132.679 14.0718Z" fill="#E7E9FF"/>
<path d="M181.171 34.2994C185.057 27.569 182.751 18.9629 176.02 15.0771C169.29 11.1913 160.684 13.4973 156.798 20.2277C141.788 46.2258 133.695 79.3396 122.749 107.346C141.53 83.8634 166.161 60.2976 181.171 34.2994Z" fill="#E7E9FF"/>
<path d="M212.76 75.6354C219.491 71.7496 221.797 63.1435 217.911 56.4131C214.025 49.6826 205.419 47.3766 198.689 51.2624C172.69 66.2725 149.125 90.9033 125.642 109.685C153.648 98.7386 186.762 90.6455 212.76 75.6354Z" fill="#E7E9FF"/>
<path d="M22.2358 154.79C15.5054 158.676 13.1994 167.282 17.0852 174.013C20.971 180.743 29.5772 183.049 36.3076 179.163C62.3057 164.153 85.8715 139.523 109.354 120.741C81.3478 131.687 48.234 139.78 22.2358 154.79Z" fill="#E7E9FF"/>
<path d="M55.2801 34.2993C51.3943 27.5688 53.7003 18.9627 60.4307 15.0769C67.1611 11.1911 75.7673 13.4971 79.6531 20.2275C94.6631 46.2256 102.756 79.3394 113.702 107.346C94.9209 83.8632 70.2901 60.2974 55.2801 34.2993Z" fill="#E7E9FF"/>
<path d="M181.171 198.688C185.057 205.418 182.751 214.025 176.02 217.91C169.29 221.796 160.684 219.49 156.798 212.76C141.788 186.762 133.695 153.648 122.749 125.641C141.53 149.124 166.161 172.69 181.171 198.688Z" fill="#E7E9FF"/>
<path d="M57.2937 198.688C53.4079 205.418 55.7139 214.025 62.4444 217.91C69.1748 221.796 77.7809 219.49 81.6667 212.76C96.6768 186.762 104.77 153.648 115.716 125.641C96.9346 149.124 72.3038 172.69 57.2937 198.688Z" fill="#E7E9FF"/>
<path d="M132.679 219.117C132.679 226.888 126.379 233.188 118.607 233.188C110.835 233.188 104.535 226.888 104.535 219.117C104.535 189.097 114.083 156.373 118.607 126.645C123.131 156.373 132.679 189.097 132.679 219.117Z" fill="#E7E9FF"/>
<path d="M221.127 100.513C228.899 100.513 235.199 106.813 235.199 114.584C235.199 122.356 228.899 128.656 221.127 128.656C191.107 128.656 158.383 119.108 128.656 114.584C158.383 110.061 191.107 100.513 221.127 100.513Z" fill="#E7E9FF"/>
<path d="M14.0718 100.513C6.30014 100.513 1.29451e-06 106.813 6.15096e-07 114.584C-6.43209e-08 122.356 6.30014 128.656 14.0717 128.656C44.0918 128.656 76.8158 119.108 106.543 114.584C76.8158 110.061 44.0918 100.513 14.0718 100.513Z" fill="#E7E9FF"/>
<path d="M214.292 154.162C221.022 158.048 223.328 166.654 219.442 173.385C215.556 180.115 206.95 182.421 200.22 178.535C174.222 163.525 150.656 138.895 127.173 120.113C155.18 131.059 188.293 139.152 214.292 154.162Z" fill="#E7E9FF"/>
<path d="M34.977 50.6344C28.2466 46.7486 19.6404 49.0546 15.7546 55.7851C11.8688 62.5155 14.1748 71.1216 20.9052 75.0074C46.9034 90.0175 80.0172 98.1106 108.024 109.057C84.5409 90.2753 60.9751 65.6445 34.977 50.6344Z" fill="#E7E9FF"/>
</svg>
